%TF.GenerationSoftware,KiCad,Pcbnew,7.0.5*%
%TF.CreationDate,2024-11-17T18:30:54-07:00*%
%TF.ProjectId,sed1200emu,73656431-3230-4306-956d-752e6b696361,rev?*%
%TF.SameCoordinates,Original*%
%TF.FileFunction,Paste,Top*%
%TF.FilePolarity,Positive*%
%FSLAX46Y46*%
G04 Gerber Fmt 4.6, Leading zero omitted, Abs format (unit mm)*
G04 Created by KiCad (PCBNEW 7.0.5) date 2024-11-17 18:30:54*
%MOMM*%
%LPD*%
G01*
G04 APERTURE LIST*
G04 Aperture macros list*
%AMRoundRect*
0 Rectangle with rounded corners*
0 $1 Rounding radius*
0 $2 $3 $4 $5 $6 $7 $8 $9 X,Y pos of 4 corners*
0 Add a 4 corners polygon primitive as box body*
4,1,4,$2,$3,$4,$5,$6,$7,$8,$9,$2,$3,0*
0 Add four circle primitives for the rounded corners*
1,1,$1+$1,$2,$3*
1,1,$1+$1,$4,$5*
1,1,$1+$1,$6,$7*
1,1,$1+$1,$8,$9*
0 Add four rect primitives between the rounded corners*
20,1,$1+$1,$2,$3,$4,$5,0*
20,1,$1+$1,$4,$5,$6,$7,0*
20,1,$1+$1,$6,$7,$8,$9,0*
20,1,$1+$1,$8,$9,$2,$3,0*%
G04 Aperture macros list end*
%ADD10RoundRect,0.250000X0.450000X-0.262500X0.450000X0.262500X-0.450000X0.262500X-0.450000X-0.262500X0*%
%ADD11RoundRect,0.250000X-0.250000X-0.475000X0.250000X-0.475000X0.250000X0.475000X-0.250000X0.475000X0*%
%ADD12RoundRect,0.250000X0.475000X-0.250000X0.475000X0.250000X-0.475000X0.250000X-0.475000X-0.250000X0*%
%ADD13R,1.600000X0.550000*%
%ADD14R,0.550000X1.600000*%
%ADD15RoundRect,0.250000X0.262500X0.450000X-0.262500X0.450000X-0.262500X-0.450000X0.262500X-0.450000X0*%
G04 APERTURE END LIST*
D10*
%TO.C,R1*%
X169621100Y-102384500D03*
X169621100Y-100559500D03*
%TD*%
D11*
%TO.C,C2*%
X133365100Y-98932000D03*
X135265100Y-98932000D03*
%TD*%
D12*
%TO.C,C1*%
X130250000Y-120770400D03*
X130250000Y-118870400D03*
%TD*%
D11*
%TO.C,C4*%
X129301100Y-108330000D03*
X131201100Y-108330000D03*
%TD*%
D13*
%TO.C,IC1*%
X142003100Y-100450000D03*
X142003100Y-101250000D03*
X142003100Y-102050000D03*
X142003100Y-102850000D03*
X142003100Y-103650000D03*
X142003100Y-104450000D03*
X142003100Y-105250000D03*
X142003100Y-106050000D03*
D14*
X143453100Y-107500000D03*
X144253100Y-107500000D03*
X145053100Y-107500000D03*
X145853100Y-107500000D03*
X146653100Y-107500000D03*
X147453100Y-107500000D03*
X148253100Y-107500000D03*
X149053100Y-107500000D03*
D13*
X150503100Y-106050000D03*
X150503100Y-105250000D03*
X150503100Y-104450000D03*
X150503100Y-103650000D03*
X150503100Y-102850000D03*
X150503100Y-102050000D03*
X150503100Y-101250000D03*
X150503100Y-100450000D03*
D14*
X149053100Y-99000000D03*
X148253100Y-99000000D03*
X147453100Y-99000000D03*
X146653100Y-99000000D03*
X145853100Y-99000000D03*
X145053100Y-99000000D03*
X144253100Y-99000000D03*
X143453100Y-99000000D03*
%TD*%
D15*
%TO.C,R3*%
X128662500Y-114870400D03*
X126837500Y-114870400D03*
%TD*%
D10*
%TO.C,R2*%
X158191100Y-120672500D03*
X158191100Y-118847500D03*
%TD*%
D11*
%TO.C,C3*%
X129301100Y-103504000D03*
X131201100Y-103504000D03*
%TD*%
M02*
