%TF.GenerationSoftware,KiCad,Pcbnew,7.0.5*%
%TF.CreationDate,2024-11-17T18:30:54-07:00*%
%TF.ProjectId,sed1200emu,73656431-3230-4306-956d-752e6b696361,rev?*%
%TF.SameCoordinates,Original*%
%TF.FileFunction,Legend,Bot*%
%TF.FilePolarity,Positive*%
%FSLAX46Y46*%
G04 Gerber Fmt 4.6, Leading zero omitted, Abs format (unit mm)*
G04 Created by KiCad (PCBNEW 7.0.5) date 2024-11-17 18:30:54*
%MOMM*%
%LPD*%
G01*
G04 APERTURE LIST*
%ADD10C,0.150000*%
%ADD11C,0.120000*%
G04 APERTURE END LIST*
D10*
%TO.C,CN2*%
X148078710Y-90726978D02*
X148126330Y-90679359D01*
X148126330Y-90679359D02*
X148173949Y-90536502D01*
X148173949Y-90536502D02*
X148173949Y-90441264D01*
X148173949Y-90441264D02*
X148126330Y-90298407D01*
X148126330Y-90298407D02*
X148031091Y-90203169D01*
X148031091Y-90203169D02*
X147935853Y-90155550D01*
X147935853Y-90155550D02*
X147745377Y-90107931D01*
X147745377Y-90107931D02*
X147602520Y-90107931D01*
X147602520Y-90107931D02*
X147412044Y-90155550D01*
X147412044Y-90155550D02*
X147316806Y-90203169D01*
X147316806Y-90203169D02*
X147221568Y-90298407D01*
X147221568Y-90298407D02*
X147173949Y-90441264D01*
X147173949Y-90441264D02*
X147173949Y-90536502D01*
X147173949Y-90536502D02*
X147221568Y-90679359D01*
X147221568Y-90679359D02*
X147269187Y-90726978D01*
X148173949Y-91155550D02*
X147173949Y-91155550D01*
X147173949Y-91155550D02*
X148173949Y-91726978D01*
X148173949Y-91726978D02*
X147173949Y-91726978D01*
X147269187Y-92155550D02*
X147221568Y-92203169D01*
X147221568Y-92203169D02*
X147173949Y-92298407D01*
X147173949Y-92298407D02*
X147173949Y-92536502D01*
X147173949Y-92536502D02*
X147221568Y-92631740D01*
X147221568Y-92631740D02*
X147269187Y-92679359D01*
X147269187Y-92679359D02*
X147364425Y-92726978D01*
X147364425Y-92726978D02*
X147459663Y-92726978D01*
X147459663Y-92726978D02*
X147602520Y-92679359D01*
X147602520Y-92679359D02*
X148173949Y-92107931D01*
X148173949Y-92107931D02*
X148173949Y-92726978D01*
%TO.C,CN1*%
X127777214Y-90726978D02*
X127824834Y-90679359D01*
X127824834Y-90679359D02*
X127872453Y-90536502D01*
X127872453Y-90536502D02*
X127872453Y-90441264D01*
X127872453Y-90441264D02*
X127824834Y-90298407D01*
X127824834Y-90298407D02*
X127729595Y-90203169D01*
X127729595Y-90203169D02*
X127634357Y-90155550D01*
X127634357Y-90155550D02*
X127443881Y-90107931D01*
X127443881Y-90107931D02*
X127301024Y-90107931D01*
X127301024Y-90107931D02*
X127110548Y-90155550D01*
X127110548Y-90155550D02*
X127015310Y-90203169D01*
X127015310Y-90203169D02*
X126920072Y-90298407D01*
X126920072Y-90298407D02*
X126872453Y-90441264D01*
X126872453Y-90441264D02*
X126872453Y-90536502D01*
X126872453Y-90536502D02*
X126920072Y-90679359D01*
X126920072Y-90679359D02*
X126967691Y-90726978D01*
X127872453Y-91155550D02*
X126872453Y-91155550D01*
X126872453Y-91155550D02*
X127872453Y-91726978D01*
X127872453Y-91726978D02*
X126872453Y-91726978D01*
X127872453Y-92726978D02*
X127872453Y-92155550D01*
X127872453Y-92441264D02*
X126872453Y-92441264D01*
X126872453Y-92441264D02*
X127015310Y-92346026D01*
X127015310Y-92346026D02*
X127110548Y-92250788D01*
X127110548Y-92250788D02*
X127158167Y-92155550D01*
D11*
%TO.C,CN2*%
X164079130Y-90087455D02*
X164079130Y-92747455D01*
X151319130Y-90087455D02*
X164079130Y-90087455D01*
X151319130Y-90087455D02*
X151319130Y-92747455D01*
X150049130Y-90087455D02*
X148719130Y-90087455D01*
X148719130Y-90087455D02*
X148719130Y-91417455D01*
X151319130Y-92747455D02*
X164079130Y-92747455D01*
%TO.C,CN1*%
X143777634Y-90087455D02*
X143777634Y-92747455D01*
X131017634Y-90087455D02*
X143777634Y-90087455D01*
X131017634Y-90087455D02*
X131017634Y-92747455D01*
X129747634Y-90087455D02*
X128417634Y-90087455D01*
X128417634Y-90087455D02*
X128417634Y-91417455D01*
X131017634Y-92747455D02*
X143777634Y-92747455D01*
%TD*%
M02*
