%TF.GenerationSoftware,KiCad,Pcbnew,7.0.5*%
%TF.CreationDate,2024-11-17T18:30:54-07:00*%
%TF.ProjectId,sed1200emu,73656431-3230-4306-956d-752e6b696361,rev?*%
%TF.SameCoordinates,Original*%
%TF.FileFunction,Legend,Top*%
%TF.FilePolarity,Positive*%
%FSLAX46Y46*%
G04 Gerber Fmt 4.6, Leading zero omitted, Abs format (unit mm)*
G04 Created by KiCad (PCBNEW 7.0.5) date 2024-11-17 18:30:54*
%MOMM*%
%LPD*%
G01*
G04 APERTURE LIST*
%ADD10C,0.150000*%
%ADD11C,0.127000*%
%ADD12C,0.120000*%
%ADD13C,0.406400*%
%ADD14C,0.152400*%
G04 APERTURE END LIST*
D10*
X157360588Y-100537838D02*
X157265350Y-100490219D01*
X157265350Y-100490219D02*
X157122493Y-100490219D01*
X157122493Y-100490219D02*
X156979636Y-100537838D01*
X156979636Y-100537838D02*
X156884398Y-100633076D01*
X156884398Y-100633076D02*
X156836779Y-100728314D01*
X156836779Y-100728314D02*
X156789160Y-100918790D01*
X156789160Y-100918790D02*
X156789160Y-101061647D01*
X156789160Y-101061647D02*
X156836779Y-101252123D01*
X156836779Y-101252123D02*
X156884398Y-101347361D01*
X156884398Y-101347361D02*
X156979636Y-101442600D01*
X156979636Y-101442600D02*
X157122493Y-101490219D01*
X157122493Y-101490219D02*
X157217731Y-101490219D01*
X157217731Y-101490219D02*
X157360588Y-101442600D01*
X157360588Y-101442600D02*
X157408207Y-101394980D01*
X157408207Y-101394980D02*
X157408207Y-101061647D01*
X157408207Y-101061647D02*
X157217731Y-101061647D01*
X157836779Y-101490219D02*
X157836779Y-100490219D01*
X157836779Y-100490219D02*
X158408207Y-101490219D01*
X158408207Y-101490219D02*
X158408207Y-100490219D01*
X158884398Y-101490219D02*
X158884398Y-100490219D01*
X158884398Y-100490219D02*
X159122493Y-100490219D01*
X159122493Y-100490219D02*
X159265350Y-100537838D01*
X159265350Y-100537838D02*
X159360588Y-100633076D01*
X159360588Y-100633076D02*
X159408207Y-100728314D01*
X159408207Y-100728314D02*
X159455826Y-100918790D01*
X159455826Y-100918790D02*
X159455826Y-101061647D01*
X159455826Y-101061647D02*
X159408207Y-101252123D01*
X159408207Y-101252123D02*
X159360588Y-101347361D01*
X159360588Y-101347361D02*
X159265350Y-101442600D01*
X159265350Y-101442600D02*
X159122493Y-101490219D01*
X159122493Y-101490219D02*
X158884398Y-101490219D01*
X141009819Y-118926477D02*
X141009819Y-118355049D01*
X142009819Y-118640763D02*
X141009819Y-118640763D01*
X141009819Y-118116953D02*
X142009819Y-117450287D01*
X141009819Y-117450287D02*
X142009819Y-118116953D01*
X142009819Y-117069334D02*
X141009819Y-117069334D01*
X141009819Y-117069334D02*
X141009819Y-116831239D01*
X141009819Y-116831239D02*
X141057438Y-116688382D01*
X141057438Y-116688382D02*
X141152676Y-116593144D01*
X141152676Y-116593144D02*
X141247914Y-116545525D01*
X141247914Y-116545525D02*
X141438390Y-116497906D01*
X141438390Y-116497906D02*
X141581247Y-116497906D01*
X141581247Y-116497906D02*
X141771723Y-116545525D01*
X141771723Y-116545525D02*
X141866961Y-116593144D01*
X141866961Y-116593144D02*
X141962200Y-116688382D01*
X141962200Y-116688382D02*
X142009819Y-116831239D01*
X142009819Y-116831239D02*
X142009819Y-117069334D01*
X145836779Y-123596009D02*
X146170112Y-123596009D01*
X146312969Y-124119819D02*
X145836779Y-124119819D01*
X145836779Y-124119819D02*
X145836779Y-123119819D01*
X145836779Y-123119819D02*
X146312969Y-123119819D01*
X134119819Y-118462192D02*
X133643628Y-118795525D01*
X134119819Y-119033620D02*
X133119819Y-119033620D01*
X133119819Y-119033620D02*
X133119819Y-118652668D01*
X133119819Y-118652668D02*
X133167438Y-118557430D01*
X133167438Y-118557430D02*
X133215057Y-118509811D01*
X133215057Y-118509811D02*
X133310295Y-118462192D01*
X133310295Y-118462192D02*
X133453152Y-118462192D01*
X133453152Y-118462192D02*
X133548390Y-118509811D01*
X133548390Y-118509811D02*
X133596009Y-118557430D01*
X133596009Y-118557430D02*
X133643628Y-118652668D01*
X133643628Y-118652668D02*
X133643628Y-119033620D01*
X134072200Y-118081239D02*
X134119819Y-117938382D01*
X134119819Y-117938382D02*
X134119819Y-117700287D01*
X134119819Y-117700287D02*
X134072200Y-117605049D01*
X134072200Y-117605049D02*
X134024580Y-117557430D01*
X134024580Y-117557430D02*
X133929342Y-117509811D01*
X133929342Y-117509811D02*
X133834104Y-117509811D01*
X133834104Y-117509811D02*
X133738866Y-117557430D01*
X133738866Y-117557430D02*
X133691247Y-117605049D01*
X133691247Y-117605049D02*
X133643628Y-117700287D01*
X133643628Y-117700287D02*
X133596009Y-117890763D01*
X133596009Y-117890763D02*
X133548390Y-117986001D01*
X133548390Y-117986001D02*
X133500771Y-118033620D01*
X133500771Y-118033620D02*
X133405533Y-118081239D01*
X133405533Y-118081239D02*
X133310295Y-118081239D01*
X133310295Y-118081239D02*
X133215057Y-118033620D01*
X133215057Y-118033620D02*
X133167438Y-117986001D01*
X133167438Y-117986001D02*
X133119819Y-117890763D01*
X133119819Y-117890763D02*
X133119819Y-117652668D01*
X133119819Y-117652668D02*
X133167438Y-117509811D01*
X133119819Y-117224096D02*
X133119819Y-116652668D01*
X134119819Y-116938382D02*
X133119819Y-116938382D01*
X155836779Y-123988866D02*
X156598684Y-123988866D01*
X157074874Y-123988866D02*
X157836779Y-123988866D01*
X158312969Y-123988866D02*
X159074874Y-123988866D01*
X159551064Y-123988866D02*
X160312969Y-123988866D01*
X156836779Y-103990219D02*
X156836779Y-102990219D01*
X156836779Y-102990219D02*
X157170112Y-103704504D01*
X157170112Y-103704504D02*
X157503445Y-102990219D01*
X157503445Y-102990219D02*
X157503445Y-103990219D01*
X158170112Y-102990219D02*
X158360588Y-102990219D01*
X158360588Y-102990219D02*
X158455826Y-103037838D01*
X158455826Y-103037838D02*
X158551064Y-103133076D01*
X158551064Y-103133076D02*
X158598683Y-103323552D01*
X158598683Y-103323552D02*
X158598683Y-103656885D01*
X158598683Y-103656885D02*
X158551064Y-103847361D01*
X158551064Y-103847361D02*
X158455826Y-103942600D01*
X158455826Y-103942600D02*
X158360588Y-103990219D01*
X158360588Y-103990219D02*
X158170112Y-103990219D01*
X158170112Y-103990219D02*
X158074874Y-103942600D01*
X158074874Y-103942600D02*
X157979636Y-103847361D01*
X157979636Y-103847361D02*
X157932017Y-103656885D01*
X157932017Y-103656885D02*
X157932017Y-103323552D01*
X157932017Y-103323552D02*
X157979636Y-103133076D01*
X157979636Y-103133076D02*
X158074874Y-103037838D01*
X158074874Y-103037838D02*
X158170112Y-102990219D01*
X158979636Y-103942600D02*
X159122493Y-103990219D01*
X159122493Y-103990219D02*
X159360588Y-103990219D01*
X159360588Y-103990219D02*
X159455826Y-103942600D01*
X159455826Y-103942600D02*
X159503445Y-103894980D01*
X159503445Y-103894980D02*
X159551064Y-103799742D01*
X159551064Y-103799742D02*
X159551064Y-103704504D01*
X159551064Y-103704504D02*
X159503445Y-103609266D01*
X159503445Y-103609266D02*
X159455826Y-103561647D01*
X159455826Y-103561647D02*
X159360588Y-103514028D01*
X159360588Y-103514028D02*
X159170112Y-103466409D01*
X159170112Y-103466409D02*
X159074874Y-103418790D01*
X159074874Y-103418790D02*
X159027255Y-103371171D01*
X159027255Y-103371171D02*
X158979636Y-103275933D01*
X158979636Y-103275933D02*
X158979636Y-103180695D01*
X158979636Y-103180695D02*
X159027255Y-103085457D01*
X159027255Y-103085457D02*
X159074874Y-103037838D01*
X159074874Y-103037838D02*
X159170112Y-102990219D01*
X159170112Y-102990219D02*
X159408207Y-102990219D01*
X159408207Y-102990219D02*
X159551064Y-103037838D01*
X159979636Y-103990219D02*
X159979636Y-102990219D01*
X132610588Y-123167438D02*
X132515350Y-123119819D01*
X132515350Y-123119819D02*
X132372493Y-123119819D01*
X132372493Y-123119819D02*
X132229636Y-123167438D01*
X132229636Y-123167438D02*
X132134398Y-123262676D01*
X132134398Y-123262676D02*
X132086779Y-123357914D01*
X132086779Y-123357914D02*
X132039160Y-123548390D01*
X132039160Y-123548390D02*
X132039160Y-123691247D01*
X132039160Y-123691247D02*
X132086779Y-123881723D01*
X132086779Y-123881723D02*
X132134398Y-123976961D01*
X132134398Y-123976961D02*
X132229636Y-124072200D01*
X132229636Y-124072200D02*
X132372493Y-124119819D01*
X132372493Y-124119819D02*
X132467731Y-124119819D01*
X132467731Y-124119819D02*
X132610588Y-124072200D01*
X132610588Y-124072200D02*
X132658207Y-124024580D01*
X132658207Y-124024580D02*
X132658207Y-123691247D01*
X132658207Y-123691247D02*
X132467731Y-123691247D01*
X133086779Y-124119819D02*
X133086779Y-123119819D01*
X133086779Y-123119819D02*
X133658207Y-124119819D01*
X133658207Y-124119819D02*
X133658207Y-123119819D01*
X134134398Y-124119819D02*
X134134398Y-123119819D01*
X134134398Y-123119819D02*
X134372493Y-123119819D01*
X134372493Y-123119819D02*
X134515350Y-123167438D01*
X134515350Y-123167438D02*
X134610588Y-123262676D01*
X134610588Y-123262676D02*
X134658207Y-123357914D01*
X134658207Y-123357914D02*
X134705826Y-123548390D01*
X134705826Y-123548390D02*
X134705826Y-123691247D01*
X134705826Y-123691247D02*
X134658207Y-123881723D01*
X134658207Y-123881723D02*
X134610588Y-123976961D01*
X134610588Y-123976961D02*
X134515350Y-124072200D01*
X134515350Y-124072200D02*
X134372493Y-124119819D01*
X134372493Y-124119819D02*
X134134398Y-124119819D01*
X156836779Y-106490219D02*
X156836779Y-105490219D01*
X156836779Y-105490219D02*
X157170112Y-106204504D01*
X157170112Y-106204504D02*
X157503445Y-105490219D01*
X157503445Y-105490219D02*
X157503445Y-106490219D01*
X157979636Y-106490219D02*
X157979636Y-105490219D01*
X158408207Y-106442600D02*
X158551064Y-106490219D01*
X158551064Y-106490219D02*
X158789159Y-106490219D01*
X158789159Y-106490219D02*
X158884397Y-106442600D01*
X158884397Y-106442600D02*
X158932016Y-106394980D01*
X158932016Y-106394980D02*
X158979635Y-106299742D01*
X158979635Y-106299742D02*
X158979635Y-106204504D01*
X158979635Y-106204504D02*
X158932016Y-106109266D01*
X158932016Y-106109266D02*
X158884397Y-106061647D01*
X158884397Y-106061647D02*
X158789159Y-106014028D01*
X158789159Y-106014028D02*
X158598683Y-105966409D01*
X158598683Y-105966409D02*
X158503445Y-105918790D01*
X158503445Y-105918790D02*
X158455826Y-105871171D01*
X158455826Y-105871171D02*
X158408207Y-105775933D01*
X158408207Y-105775933D02*
X158408207Y-105680695D01*
X158408207Y-105680695D02*
X158455826Y-105585457D01*
X158455826Y-105585457D02*
X158503445Y-105537838D01*
X158503445Y-105537838D02*
X158598683Y-105490219D01*
X158598683Y-105490219D02*
X158836778Y-105490219D01*
X158836778Y-105490219D02*
X158979635Y-105537838D01*
X159598683Y-105490219D02*
X159789159Y-105490219D01*
X159789159Y-105490219D02*
X159884397Y-105537838D01*
X159884397Y-105537838D02*
X159979635Y-105633076D01*
X159979635Y-105633076D02*
X160027254Y-105823552D01*
X160027254Y-105823552D02*
X160027254Y-106156885D01*
X160027254Y-106156885D02*
X159979635Y-106347361D01*
X159979635Y-106347361D02*
X159884397Y-106442600D01*
X159884397Y-106442600D02*
X159789159Y-106490219D01*
X159789159Y-106490219D02*
X159598683Y-106490219D01*
X159598683Y-106490219D02*
X159503445Y-106442600D01*
X159503445Y-106442600D02*
X159408207Y-106347361D01*
X159408207Y-106347361D02*
X159360588Y-106156885D01*
X159360588Y-106156885D02*
X159360588Y-105823552D01*
X159360588Y-105823552D02*
X159408207Y-105633076D01*
X159408207Y-105633076D02*
X159503445Y-105537838D01*
X159503445Y-105537838D02*
X159598683Y-105490219D01*
X138417438Y-118759811D02*
X138369819Y-118855049D01*
X138369819Y-118855049D02*
X138369819Y-118997906D01*
X138369819Y-118997906D02*
X138417438Y-119140763D01*
X138417438Y-119140763D02*
X138512676Y-119236001D01*
X138512676Y-119236001D02*
X138607914Y-119283620D01*
X138607914Y-119283620D02*
X138798390Y-119331239D01*
X138798390Y-119331239D02*
X138941247Y-119331239D01*
X138941247Y-119331239D02*
X139131723Y-119283620D01*
X139131723Y-119283620D02*
X139226961Y-119236001D01*
X139226961Y-119236001D02*
X139322200Y-119140763D01*
X139322200Y-119140763D02*
X139369819Y-118997906D01*
X139369819Y-118997906D02*
X139369819Y-118902668D01*
X139369819Y-118902668D02*
X139322200Y-118759811D01*
X139322200Y-118759811D02*
X139274580Y-118712192D01*
X139274580Y-118712192D02*
X138941247Y-118712192D01*
X138941247Y-118712192D02*
X138941247Y-118902668D01*
X139369819Y-118283620D02*
X138369819Y-118283620D01*
X138369819Y-118283620D02*
X139369819Y-117712192D01*
X139369819Y-117712192D02*
X138369819Y-117712192D01*
X139369819Y-117236001D02*
X138369819Y-117236001D01*
X138369819Y-117236001D02*
X138369819Y-116997906D01*
X138369819Y-116997906D02*
X138417438Y-116855049D01*
X138417438Y-116855049D02*
X138512676Y-116759811D01*
X138512676Y-116759811D02*
X138607914Y-116712192D01*
X138607914Y-116712192D02*
X138798390Y-116664573D01*
X138798390Y-116664573D02*
X138941247Y-116664573D01*
X138941247Y-116664573D02*
X139131723Y-116712192D01*
X139131723Y-116712192D02*
X139226961Y-116759811D01*
X139226961Y-116759811D02*
X139322200Y-116855049D01*
X139322200Y-116855049D02*
X139369819Y-116997906D01*
X139369819Y-116997906D02*
X139369819Y-117236001D01*
X163836779Y-124119819D02*
X163836779Y-123119819D01*
X164408207Y-124119819D02*
X163979636Y-123548390D01*
X164408207Y-123119819D02*
X163836779Y-123691247D01*
X144619819Y-118462192D02*
X144143628Y-118795525D01*
X144619819Y-119033620D02*
X143619819Y-119033620D01*
X143619819Y-119033620D02*
X143619819Y-118652668D01*
X143619819Y-118652668D02*
X143667438Y-118557430D01*
X143667438Y-118557430D02*
X143715057Y-118509811D01*
X143715057Y-118509811D02*
X143810295Y-118462192D01*
X143810295Y-118462192D02*
X143953152Y-118462192D01*
X143953152Y-118462192D02*
X144048390Y-118509811D01*
X144048390Y-118509811D02*
X144096009Y-118557430D01*
X144096009Y-118557430D02*
X144143628Y-118652668D01*
X144143628Y-118652668D02*
X144143628Y-119033620D01*
X143619819Y-118128858D02*
X144619819Y-117462192D01*
X143619819Y-117462192D02*
X144619819Y-118128858D01*
X144619819Y-117081239D02*
X143619819Y-117081239D01*
X143619819Y-117081239D02*
X143619819Y-116843144D01*
X143619819Y-116843144D02*
X143667438Y-116700287D01*
X143667438Y-116700287D02*
X143762676Y-116605049D01*
X143762676Y-116605049D02*
X143857914Y-116557430D01*
X143857914Y-116557430D02*
X144048390Y-116509811D01*
X144048390Y-116509811D02*
X144191247Y-116509811D01*
X144191247Y-116509811D02*
X144381723Y-116557430D01*
X144381723Y-116557430D02*
X144476961Y-116605049D01*
X144476961Y-116605049D02*
X144572200Y-116700287D01*
X144572200Y-116700287D02*
X144619819Y-116843144D01*
X144619819Y-116843144D02*
X144619819Y-117081239D01*
X137836779Y-123988866D02*
X138598684Y-123988866D01*
X139074874Y-123988866D02*
X139836779Y-123988866D01*
X140312969Y-123988866D02*
X141074874Y-123988866D01*
X141551064Y-123988866D02*
X142312969Y-123988866D01*
X153789160Y-98692600D02*
X153932017Y-98740219D01*
X153932017Y-98740219D02*
X154170112Y-98740219D01*
X154170112Y-98740219D02*
X154265350Y-98692600D01*
X154265350Y-98692600D02*
X154312969Y-98644980D01*
X154312969Y-98644980D02*
X154360588Y-98549742D01*
X154360588Y-98549742D02*
X154360588Y-98454504D01*
X154360588Y-98454504D02*
X154312969Y-98359266D01*
X154312969Y-98359266D02*
X154265350Y-98311647D01*
X154265350Y-98311647D02*
X154170112Y-98264028D01*
X154170112Y-98264028D02*
X153979636Y-98216409D01*
X153979636Y-98216409D02*
X153884398Y-98168790D01*
X153884398Y-98168790D02*
X153836779Y-98121171D01*
X153836779Y-98121171D02*
X153789160Y-98025933D01*
X153789160Y-98025933D02*
X153789160Y-97930695D01*
X153789160Y-97930695D02*
X153836779Y-97835457D01*
X153836779Y-97835457D02*
X153884398Y-97787838D01*
X153884398Y-97787838D02*
X153979636Y-97740219D01*
X153979636Y-97740219D02*
X154217731Y-97740219D01*
X154217731Y-97740219D02*
X154360588Y-97787838D01*
X154789160Y-98740219D02*
X154789160Y-97740219D01*
X154789160Y-97740219D02*
X155170112Y-97740219D01*
X155170112Y-97740219D02*
X155265350Y-97787838D01*
X155265350Y-97787838D02*
X155312969Y-97835457D01*
X155312969Y-97835457D02*
X155360588Y-97930695D01*
X155360588Y-97930695D02*
X155360588Y-98073552D01*
X155360588Y-98073552D02*
X155312969Y-98168790D01*
X155312969Y-98168790D02*
X155265350Y-98216409D01*
X155265350Y-98216409D02*
X155170112Y-98264028D01*
X155170112Y-98264028D02*
X154789160Y-98264028D01*
X155789160Y-98740219D02*
X155789160Y-97740219D01*
X156789160Y-108942600D02*
X156932017Y-108990219D01*
X156932017Y-108990219D02*
X157170112Y-108990219D01*
X157170112Y-108990219D02*
X157265350Y-108942600D01*
X157265350Y-108942600D02*
X157312969Y-108894980D01*
X157312969Y-108894980D02*
X157360588Y-108799742D01*
X157360588Y-108799742D02*
X157360588Y-108704504D01*
X157360588Y-108704504D02*
X157312969Y-108609266D01*
X157312969Y-108609266D02*
X157265350Y-108561647D01*
X157265350Y-108561647D02*
X157170112Y-108514028D01*
X157170112Y-108514028D02*
X156979636Y-108466409D01*
X156979636Y-108466409D02*
X156884398Y-108418790D01*
X156884398Y-108418790D02*
X156836779Y-108371171D01*
X156836779Y-108371171D02*
X156789160Y-108275933D01*
X156789160Y-108275933D02*
X156789160Y-108180695D01*
X156789160Y-108180695D02*
X156836779Y-108085457D01*
X156836779Y-108085457D02*
X156884398Y-108037838D01*
X156884398Y-108037838D02*
X156979636Y-107990219D01*
X156979636Y-107990219D02*
X157217731Y-107990219D01*
X157217731Y-107990219D02*
X157360588Y-108037838D01*
X158360588Y-108894980D02*
X158312969Y-108942600D01*
X158312969Y-108942600D02*
X158170112Y-108990219D01*
X158170112Y-108990219D02*
X158074874Y-108990219D01*
X158074874Y-108990219D02*
X157932017Y-108942600D01*
X157932017Y-108942600D02*
X157836779Y-108847361D01*
X157836779Y-108847361D02*
X157789160Y-108752123D01*
X157789160Y-108752123D02*
X157741541Y-108561647D01*
X157741541Y-108561647D02*
X157741541Y-108418790D01*
X157741541Y-108418790D02*
X157789160Y-108228314D01*
X157789160Y-108228314D02*
X157836779Y-108133076D01*
X157836779Y-108133076D02*
X157932017Y-108037838D01*
X157932017Y-108037838D02*
X158074874Y-107990219D01*
X158074874Y-107990219D02*
X158170112Y-107990219D01*
X158170112Y-107990219D02*
X158312969Y-108037838D01*
X158312969Y-108037838D02*
X158360588Y-108085457D01*
X158789160Y-108990219D02*
X158789160Y-107990219D01*
X159360588Y-108990219D02*
X158932017Y-108418790D01*
X159360588Y-107990219D02*
X158789160Y-108561647D01*
X150586779Y-124119819D02*
X150586779Y-123119819D01*
X150586779Y-123119819D02*
X150824874Y-123119819D01*
X150824874Y-123119819D02*
X150967731Y-123167438D01*
X150967731Y-123167438D02*
X151062969Y-123262676D01*
X151062969Y-123262676D02*
X151110588Y-123357914D01*
X151110588Y-123357914D02*
X151158207Y-123548390D01*
X151158207Y-123548390D02*
X151158207Y-123691247D01*
X151158207Y-123691247D02*
X151110588Y-123881723D01*
X151110588Y-123881723D02*
X151062969Y-123976961D01*
X151062969Y-123976961D02*
X150967731Y-124072200D01*
X150967731Y-124072200D02*
X150824874Y-124119819D01*
X150824874Y-124119819D02*
X150586779Y-124119819D01*
X151491541Y-123119819D02*
X152158207Y-123119819D01*
X152158207Y-123119819D02*
X151729636Y-124119819D01*
%TO.C,R1*%
X168425919Y-101638666D02*
X167949728Y-101971999D01*
X168425919Y-102210094D02*
X167425919Y-102210094D01*
X167425919Y-102210094D02*
X167425919Y-101829142D01*
X167425919Y-101829142D02*
X167473538Y-101733904D01*
X167473538Y-101733904D02*
X167521157Y-101686285D01*
X167521157Y-101686285D02*
X167616395Y-101638666D01*
X167616395Y-101638666D02*
X167759252Y-101638666D01*
X167759252Y-101638666D02*
X167854490Y-101686285D01*
X167854490Y-101686285D02*
X167902109Y-101733904D01*
X167902109Y-101733904D02*
X167949728Y-101829142D01*
X167949728Y-101829142D02*
X167949728Y-102210094D01*
X168425919Y-100686285D02*
X168425919Y-101257713D01*
X168425919Y-100971999D02*
X167425919Y-100971999D01*
X167425919Y-100971999D02*
X167568776Y-101067237D01*
X167568776Y-101067237D02*
X167664014Y-101162475D01*
X167664014Y-101162475D02*
X167711633Y-101257713D01*
%TO.C,C2*%
X134148433Y-97611580D02*
X134100814Y-97659200D01*
X134100814Y-97659200D02*
X133957957Y-97706819D01*
X133957957Y-97706819D02*
X133862719Y-97706819D01*
X133862719Y-97706819D02*
X133719862Y-97659200D01*
X133719862Y-97659200D02*
X133624624Y-97563961D01*
X133624624Y-97563961D02*
X133577005Y-97468723D01*
X133577005Y-97468723D02*
X133529386Y-97278247D01*
X133529386Y-97278247D02*
X133529386Y-97135390D01*
X133529386Y-97135390D02*
X133577005Y-96944914D01*
X133577005Y-96944914D02*
X133624624Y-96849676D01*
X133624624Y-96849676D02*
X133719862Y-96754438D01*
X133719862Y-96754438D02*
X133862719Y-96706819D01*
X133862719Y-96706819D02*
X133957957Y-96706819D01*
X133957957Y-96706819D02*
X134100814Y-96754438D01*
X134100814Y-96754438D02*
X134148433Y-96802057D01*
X134529386Y-96802057D02*
X134577005Y-96754438D01*
X134577005Y-96754438D02*
X134672243Y-96706819D01*
X134672243Y-96706819D02*
X134910338Y-96706819D01*
X134910338Y-96706819D02*
X135005576Y-96754438D01*
X135005576Y-96754438D02*
X135053195Y-96802057D01*
X135053195Y-96802057D02*
X135100814Y-96897295D01*
X135100814Y-96897295D02*
X135100814Y-96992533D01*
X135100814Y-96992533D02*
X135053195Y-97135390D01*
X135053195Y-97135390D02*
X134481767Y-97706819D01*
X134481767Y-97706819D02*
X135100814Y-97706819D01*
%TO.C,C1*%
X128929580Y-119987066D02*
X128977200Y-120034685D01*
X128977200Y-120034685D02*
X129024819Y-120177542D01*
X129024819Y-120177542D02*
X129024819Y-120272780D01*
X129024819Y-120272780D02*
X128977200Y-120415637D01*
X128977200Y-120415637D02*
X128881961Y-120510875D01*
X128881961Y-120510875D02*
X128786723Y-120558494D01*
X128786723Y-120558494D02*
X128596247Y-120606113D01*
X128596247Y-120606113D02*
X128453390Y-120606113D01*
X128453390Y-120606113D02*
X128262914Y-120558494D01*
X128262914Y-120558494D02*
X128167676Y-120510875D01*
X128167676Y-120510875D02*
X128072438Y-120415637D01*
X128072438Y-120415637D02*
X128024819Y-120272780D01*
X128024819Y-120272780D02*
X128024819Y-120177542D01*
X128024819Y-120177542D02*
X128072438Y-120034685D01*
X128072438Y-120034685D02*
X128120057Y-119987066D01*
X129024819Y-119034685D02*
X129024819Y-119606113D01*
X129024819Y-119320399D02*
X128024819Y-119320399D01*
X128024819Y-119320399D02*
X128167676Y-119415637D01*
X128167676Y-119415637D02*
X128262914Y-119510875D01*
X128262914Y-119510875D02*
X128310533Y-119606113D01*
%TO.C,C4*%
X130084433Y-107009580D02*
X130036814Y-107057200D01*
X130036814Y-107057200D02*
X129893957Y-107104819D01*
X129893957Y-107104819D02*
X129798719Y-107104819D01*
X129798719Y-107104819D02*
X129655862Y-107057200D01*
X129655862Y-107057200D02*
X129560624Y-106961961D01*
X129560624Y-106961961D02*
X129513005Y-106866723D01*
X129513005Y-106866723D02*
X129465386Y-106676247D01*
X129465386Y-106676247D02*
X129465386Y-106533390D01*
X129465386Y-106533390D02*
X129513005Y-106342914D01*
X129513005Y-106342914D02*
X129560624Y-106247676D01*
X129560624Y-106247676D02*
X129655862Y-106152438D01*
X129655862Y-106152438D02*
X129798719Y-106104819D01*
X129798719Y-106104819D02*
X129893957Y-106104819D01*
X129893957Y-106104819D02*
X130036814Y-106152438D01*
X130036814Y-106152438D02*
X130084433Y-106200057D01*
X130941576Y-106438152D02*
X130941576Y-107104819D01*
X130703481Y-106057200D02*
X130465386Y-106771485D01*
X130465386Y-106771485D02*
X131084433Y-106771485D01*
%TO.C,IC1*%
X145276910Y-103325219D02*
X145276910Y-102325219D01*
X146324528Y-103229980D02*
X146276909Y-103277600D01*
X146276909Y-103277600D02*
X146134052Y-103325219D01*
X146134052Y-103325219D02*
X146038814Y-103325219D01*
X146038814Y-103325219D02*
X145895957Y-103277600D01*
X145895957Y-103277600D02*
X145800719Y-103182361D01*
X145800719Y-103182361D02*
X145753100Y-103087123D01*
X145753100Y-103087123D02*
X145705481Y-102896647D01*
X145705481Y-102896647D02*
X145705481Y-102753790D01*
X145705481Y-102753790D02*
X145753100Y-102563314D01*
X145753100Y-102563314D02*
X145800719Y-102468076D01*
X145800719Y-102468076D02*
X145895957Y-102372838D01*
X145895957Y-102372838D02*
X146038814Y-102325219D01*
X146038814Y-102325219D02*
X146134052Y-102325219D01*
X146134052Y-102325219D02*
X146276909Y-102372838D01*
X146276909Y-102372838D02*
X146324528Y-102420457D01*
X147276909Y-103325219D02*
X146705481Y-103325219D01*
X146991195Y-103325219D02*
X146991195Y-102325219D01*
X146991195Y-102325219D02*
X146895957Y-102468076D01*
X146895957Y-102468076D02*
X146800719Y-102563314D01*
X146800719Y-102563314D02*
X146705481Y-102610933D01*
%TO.C,R3*%
X127495833Y-113575219D02*
X127162500Y-113099028D01*
X126924405Y-113575219D02*
X126924405Y-112575219D01*
X126924405Y-112575219D02*
X127305357Y-112575219D01*
X127305357Y-112575219D02*
X127400595Y-112622838D01*
X127400595Y-112622838D02*
X127448214Y-112670457D01*
X127448214Y-112670457D02*
X127495833Y-112765695D01*
X127495833Y-112765695D02*
X127495833Y-112908552D01*
X127495833Y-112908552D02*
X127448214Y-113003790D01*
X127448214Y-113003790D02*
X127400595Y-113051409D01*
X127400595Y-113051409D02*
X127305357Y-113099028D01*
X127305357Y-113099028D02*
X126924405Y-113099028D01*
X127829167Y-112575219D02*
X128448214Y-112575219D01*
X128448214Y-112575219D02*
X128114881Y-112956171D01*
X128114881Y-112956171D02*
X128257738Y-112956171D01*
X128257738Y-112956171D02*
X128352976Y-113003790D01*
X128352976Y-113003790D02*
X128400595Y-113051409D01*
X128400595Y-113051409D02*
X128448214Y-113146647D01*
X128448214Y-113146647D02*
X128448214Y-113384742D01*
X128448214Y-113384742D02*
X128400595Y-113479980D01*
X128400595Y-113479980D02*
X128352976Y-113527600D01*
X128352976Y-113527600D02*
X128257738Y-113575219D01*
X128257738Y-113575219D02*
X127972024Y-113575219D01*
X127972024Y-113575219D02*
X127876786Y-113527600D01*
X127876786Y-113527600D02*
X127829167Y-113479980D01*
%TO.C,R2*%
X156995919Y-119926666D02*
X156519728Y-120259999D01*
X156995919Y-120498094D02*
X155995919Y-120498094D01*
X155995919Y-120498094D02*
X155995919Y-120117142D01*
X155995919Y-120117142D02*
X156043538Y-120021904D01*
X156043538Y-120021904D02*
X156091157Y-119974285D01*
X156091157Y-119974285D02*
X156186395Y-119926666D01*
X156186395Y-119926666D02*
X156329252Y-119926666D01*
X156329252Y-119926666D02*
X156424490Y-119974285D01*
X156424490Y-119974285D02*
X156472109Y-120021904D01*
X156472109Y-120021904D02*
X156519728Y-120117142D01*
X156519728Y-120117142D02*
X156519728Y-120498094D01*
X156091157Y-119545713D02*
X156043538Y-119498094D01*
X156043538Y-119498094D02*
X155995919Y-119402856D01*
X155995919Y-119402856D02*
X155995919Y-119164761D01*
X155995919Y-119164761D02*
X156043538Y-119069523D01*
X156043538Y-119069523D02*
X156091157Y-119021904D01*
X156091157Y-119021904D02*
X156186395Y-118974285D01*
X156186395Y-118974285D02*
X156281633Y-118974285D01*
X156281633Y-118974285D02*
X156424490Y-119021904D01*
X156424490Y-119021904D02*
X156995919Y-119593332D01*
X156995919Y-119593332D02*
X156995919Y-118974285D01*
%TO.C,C3*%
X130084433Y-102183580D02*
X130036814Y-102231200D01*
X130036814Y-102231200D02*
X129893957Y-102278819D01*
X129893957Y-102278819D02*
X129798719Y-102278819D01*
X129798719Y-102278819D02*
X129655862Y-102231200D01*
X129655862Y-102231200D02*
X129560624Y-102135961D01*
X129560624Y-102135961D02*
X129513005Y-102040723D01*
X129513005Y-102040723D02*
X129465386Y-101850247D01*
X129465386Y-101850247D02*
X129465386Y-101707390D01*
X129465386Y-101707390D02*
X129513005Y-101516914D01*
X129513005Y-101516914D02*
X129560624Y-101421676D01*
X129560624Y-101421676D02*
X129655862Y-101326438D01*
X129655862Y-101326438D02*
X129798719Y-101278819D01*
X129798719Y-101278819D02*
X129893957Y-101278819D01*
X129893957Y-101278819D02*
X130036814Y-101326438D01*
X130036814Y-101326438D02*
X130084433Y-101374057D01*
X130417767Y-101278819D02*
X131036814Y-101278819D01*
X131036814Y-101278819D02*
X130703481Y-101659771D01*
X130703481Y-101659771D02*
X130846338Y-101659771D01*
X130846338Y-101659771D02*
X130941576Y-101707390D01*
X130941576Y-101707390D02*
X130989195Y-101755009D01*
X130989195Y-101755009D02*
X131036814Y-101850247D01*
X131036814Y-101850247D02*
X131036814Y-102088342D01*
X131036814Y-102088342D02*
X130989195Y-102183580D01*
X130989195Y-102183580D02*
X130941576Y-102231200D01*
X130941576Y-102231200D02*
X130846338Y-102278819D01*
X130846338Y-102278819D02*
X130560624Y-102278819D01*
X130560624Y-102278819D02*
X130465386Y-102231200D01*
X130465386Y-102231200D02*
X130417767Y-102183580D01*
D11*
%TO.C,Q1*%
X132880471Y-110006305D02*
X132826043Y-110115162D01*
X132826043Y-110115162D02*
X132717186Y-110224019D01*
X132717186Y-110224019D02*
X132553900Y-110387305D01*
X132553900Y-110387305D02*
X132499471Y-110496162D01*
X132499471Y-110496162D02*
X132499471Y-110605019D01*
X132771614Y-110550590D02*
X132717186Y-110659448D01*
X132717186Y-110659448D02*
X132608328Y-110768305D01*
X132608328Y-110768305D02*
X132390614Y-110822733D01*
X132390614Y-110822733D02*
X132009614Y-110822733D01*
X132009614Y-110822733D02*
X131791900Y-110768305D01*
X131791900Y-110768305D02*
X131683043Y-110659448D01*
X131683043Y-110659448D02*
X131628614Y-110550590D01*
X131628614Y-110550590D02*
X131628614Y-110332876D01*
X131628614Y-110332876D02*
X131683043Y-110224019D01*
X131683043Y-110224019D02*
X131791900Y-110115162D01*
X131791900Y-110115162D02*
X132009614Y-110060733D01*
X132009614Y-110060733D02*
X132390614Y-110060733D01*
X132390614Y-110060733D02*
X132608328Y-110115162D01*
X132608328Y-110115162D02*
X132717186Y-110224019D01*
X132717186Y-110224019D02*
X132771614Y-110332876D01*
X132771614Y-110332876D02*
X132771614Y-110550590D01*
X132771614Y-108972161D02*
X132771614Y-109625304D01*
X132771614Y-109298733D02*
X131628614Y-109298733D01*
X131628614Y-109298733D02*
X131791900Y-109407590D01*
X131791900Y-109407590D02*
X131900757Y-109516447D01*
X131900757Y-109516447D02*
X131955186Y-109625304D01*
D12*
%TO.C,DIS2-1*%
X131920000Y-127580000D02*
X131920000Y-126250000D01*
X133250000Y-127580000D02*
X131920000Y-127580000D01*
X134520000Y-127580000D02*
X147280000Y-127580000D01*
X134520000Y-127580000D02*
X134520000Y-124920000D01*
X147280000Y-127580000D02*
X147280000Y-124920000D01*
X134520000Y-124920000D02*
X147280000Y-124920000D01*
%TO.C,R1*%
X168886100Y-101699064D02*
X168886100Y-101244936D01*
X170356100Y-101699064D02*
X170356100Y-101244936D01*
%TO.C,UART1*%
X137645000Y-115950400D02*
X137645000Y-114620400D01*
X138975000Y-115950400D02*
X137645000Y-115950400D01*
X140245000Y-115950400D02*
X145385000Y-115950400D01*
X140245000Y-115950400D02*
X140245000Y-113290400D01*
X145385000Y-115950400D02*
X145385000Y-113290400D01*
X140245000Y-113290400D02*
X145385000Y-113290400D01*
%TO.C,C2*%
X134053848Y-98197000D02*
X134576352Y-98197000D01*
X134053848Y-99667000D02*
X134576352Y-99667000D01*
%TO.C,C1*%
X129515000Y-120081652D02*
X129515000Y-119559148D01*
X130985000Y-120081652D02*
X130985000Y-119559148D01*
%TO.C,SPI1*%
X153420000Y-99540400D02*
X154750000Y-99540400D01*
X153420000Y-100870400D02*
X153420000Y-99540400D01*
X153420000Y-102140400D02*
X153420000Y-109820400D01*
X153420000Y-102140400D02*
X156080000Y-102140400D01*
X153420000Y-109820400D02*
X156080000Y-109820400D01*
X156080000Y-102140400D02*
X156080000Y-109820400D01*
%TO.C,C4*%
X129989848Y-107595000D02*
X130512352Y-107595000D01*
X129989848Y-109065000D02*
X130512352Y-109065000D01*
%TO.C,DIS2-2*%
X149920000Y-127580000D02*
X149920000Y-126250000D01*
X151250000Y-127580000D02*
X149920000Y-127580000D01*
X152520000Y-127580000D02*
X165280000Y-127580000D01*
X152520000Y-127580000D02*
X152520000Y-124920000D01*
X165280000Y-127580000D02*
X165280000Y-124920000D01*
X152520000Y-124920000D02*
X165280000Y-124920000D01*
D10*
%TO.C,IC1*%
X142628100Y-99625000D02*
X142628100Y-99850000D01*
X142628100Y-99625000D02*
X142953100Y-99625000D01*
X142628100Y-99850000D02*
X141203100Y-99850000D01*
X142628100Y-106875000D02*
X142628100Y-106550000D01*
X142628100Y-106875000D02*
X142953100Y-106875000D01*
X149878100Y-99625000D02*
X149553100Y-99625000D01*
X149878100Y-99625000D02*
X149878100Y-99950000D01*
X149878100Y-106875000D02*
X149553100Y-106875000D01*
X149878100Y-106875000D02*
X149878100Y-106550000D01*
D12*
%TO.C,R3*%
X127977064Y-115605400D02*
X127522936Y-115605400D01*
X127977064Y-114135400D02*
X127522936Y-114135400D01*
%TO.C,R2*%
X157456100Y-119987064D02*
X157456100Y-119532936D01*
X158926100Y-119987064D02*
X158926100Y-119532936D01*
%TO.C,C3*%
X129989848Y-102769000D02*
X130512352Y-102769000D01*
X129989848Y-104239000D02*
X130512352Y-104239000D01*
D13*
%TO.C,Q1*%
X133426100Y-109092000D02*
X133426100Y-102996000D01*
D14*
X137236100Y-109092000D02*
X137236100Y-102996000D01*
D13*
X137744100Y-109092000D02*
X137744100Y-102996000D01*
D14*
X134823100Y-106679000D02*
X135585100Y-106679000D01*
X135585100Y-106679000D02*
X135585100Y-107314000D01*
X135585100Y-106679000D02*
X136347100Y-106679000D01*
X134823100Y-106298000D02*
X134823100Y-105790000D01*
X136347100Y-106298000D02*
X134823100Y-106298000D01*
X134823100Y-105790000D02*
X136347100Y-105790000D01*
X136347100Y-105790000D02*
X136347100Y-106298000D01*
X134823100Y-105409000D02*
X135585100Y-105409000D01*
X135585100Y-105409000D02*
X136347100Y-105409000D01*
X135585100Y-105409000D02*
X135585100Y-104774000D01*
X133934100Y-102996000D02*
X133934100Y-109092000D01*
X133934100Y-109092000D02*
G75*
G03*
X137236100Y-109092000I1651000J0D01*
G01*
D13*
X133426100Y-109092000D02*
G75*
G03*
X137744100Y-109092000I2159000J0D01*
G01*
X137744100Y-102996000D02*
G75*
G03*
X133426100Y-102996000I-2159000J0D01*
G01*
D14*
X137236100Y-102996000D02*
G75*
G03*
X133934100Y-102996000I-1651000J0D01*
G01*
D12*
%TO.C,RESET1*%
X130645000Y-115950400D02*
X130645000Y-114620400D01*
X131975000Y-115950400D02*
X130645000Y-115950400D01*
X133245000Y-115950400D02*
X135845000Y-115950400D01*
X133245000Y-115950400D02*
X133245000Y-113290400D01*
X135845000Y-115950400D02*
X135845000Y-113290400D01*
X133245000Y-113290400D02*
X135845000Y-113290400D01*
%TD*%
M02*
