M48
; DRILL file {KiCad 7.0.5} date Sun Nov 17 18:31:06 2024
; FORMAT={-:-/ absolute / inch / decimal}
; #@! TF.CreationDate,2024-11-17T18:31:06-07:00
; #@! TF.GenerationSoftware,Kicad,Pcbnew,7.0.5
; #@! TF.FileFunction,Plated,1,2,PTH
FMAT,2
INCH
; #@! TA.AperFunction,Plated,PTH,ViaDrill
T1C0.0118
; #@! TA.AperFunction,Plated,PTH,ComponentDrill
T2C0.0320
; #@! TA.AperFunction,Plated,PTH,ComponentDrill
T3C0.0394
%
G90
G05
T1
X5.0098Y-4.8622
X5.0394Y-3.4449
X5.0689Y-4.6406
X5.0787Y-3.9122
X5.1476Y-3.6858
X5.502Y-4.2567
X5.6594Y-3.8236
X5.7087Y-3.6024
X5.7128Y-3.8236
X5.7185Y-4.0008
X5.7677Y-3.8236
X5.8169Y-4.0008
X5.8661Y-4.5126
X5.8957Y-4.4831
X5.9252Y-4.4536
X5.9547Y-4.424
X5.9843Y-4.3945
X6.0039Y-4.365
X6.0827Y-4.5815
X6.3189Y-3.9516
X6.4961Y-3.5925
X6.6142Y-4.1583
X6.6142Y-4.5815
X6.6732Y-3.4449
X6.6732Y-4.7587
T2
X5.338Y-4.08
X5.338Y-4.27
T3
X5.1082Y-3.5991
X5.1959Y-4.5126
X5.2082Y-3.5991
X5.2461Y-4.9705
X5.2959Y-4.5126
X5.3082Y-3.5991
X5.3461Y-4.9705
X5.4082Y-3.5991
X5.4461Y-4.9705
X5.4715Y-4.5126
X5.5082Y-3.5991
X5.5461Y-4.9705
X5.5715Y-4.5126
X5.6082Y-3.5991
X5.6461Y-4.9705
X5.6715Y-4.5126
X5.7461Y-4.9705
X5.9074Y-3.5991
X5.9547Y-4.9705
X6.0074Y-3.5991
X6.0547Y-4.9705
X6.0925Y-3.9713
X6.0925Y-4.0713
X6.0925Y-4.1713
X6.0925Y-4.2713
X6.1074Y-3.5991
X6.1547Y-4.9705
X6.2074Y-3.5991
X6.2547Y-4.9705
X6.3074Y-3.5991
X6.3547Y-4.9705
X6.4074Y-3.5991
X6.4121Y-3.9519
X6.4121Y-4.0519
X6.4121Y-4.1519
X6.4121Y-4.2519
X6.4121Y-4.3519
X6.4121Y-4.4519
X6.4121Y-4.5519
X6.4121Y-4.6519
X6.4547Y-4.9705
X6.5121Y-3.9519
X6.5121Y-4.0519
X6.5121Y-4.1519
X6.5121Y-4.2519
X6.5121Y-4.3519
X6.5121Y-4.4519
X6.5121Y-4.5519
X6.5121Y-4.6519
T0
M30
